<?xml version="1.0" encoding="utf-8"?>
<!-- Generator: Adobe Illustrator 24.1.0, SVG Export Plug-In . SVG Version: 6.00 Build 0)  -->
<svg version="1.1" id="Layer_1" xmlns="http://www.w3.org/2000/svg" xmlns:xlink="http://www.w3.org/1999/xlink" x="0px" y="0px"
	 viewBox="0 0 12 12" style="enable-background:new 0 0 12 12;" xml:space="preserve">
<path d="M11,2.5L9.5,1C9.2,0.7,8.8,0.7,8.5,1L1.7,7.7C1.6,7.8,1.6,7.9,1.5,8l-0.8,2.2c-0.1,0.2-0.1,0.3,0,0.5
	c0.1,0.4,0.6,0.6,0.9,0.5L4,10.5c0.1,0,0.2-0.1,0.3-0.2L11,3.5C11.3,3.2,11.3,2.8,11,2.5z M3.8,9.8l-2.2,0.8l0.8-2.2l0.1-0.1
	c0.1,0.1,0.2,0.1,0.3,0.1H3v0.4C3,8.8,3.2,9,3.4,9h0.4v0.4c0,0.1,0,0.2,0.1,0.3L3.8,9.8z M9.1,4.8L9.1,4.8L8.9,4.6L7.4,3.1L7.2,2.9
	l0.5-0.5L8,2.5L9.5,4l0.2,0.2L9.1,4.8z"/>
</svg>
