<?xml version="1.0" encoding="utf-8"?>
<!-- Generator: Adobe Illustrator 24.1.0, SVG Export Plug-In . SVG Version: 6.00 Build 0)  -->
<svg version="1.1" id="Layer_1" xmlns="http://www.w3.org/2000/svg" xmlns:xlink="http://www.w3.org/1999/xlink" x="0px" y="0px"
	 viewBox="0 0 12 12" style="enable-background:new 0 0 12 12;" xml:space="preserve">
<path d="M11.6,1.8c0.2,0.2,0.2,0.5,0,0.7l-1,1L8.7,1.5l1-1c0.2-0.2,0.5-0.2,0.7,0L11.6,1.8L11.6,1.8z M9.9,4.1L8,2.2L1.4,8.8
	C1.3,8.8,1.3,8.9,1.3,9l-0.8,2.3c0,0.1,0,0.3,0.2,0.3c0,0,0.1,0,0.2,0l2.3-0.8c0.1,0,0.1-0.1,0.2-0.1L9.9,4.1L9.9,4.1z"/>
</svg>
